# xmcd
#
# Track frame offsets:
#	150
#	18875
#	34802
#	49652
#	67935
#	88070
#	105320
#	125945
#	142805
#	162137
#	177742
#	195890
#	212255
#
# Disc length: 3005 seconds
#
# Revision: 0
# Processed by: cddbd v1.5.2PL0 Copyright (c) Steve Scherf et al.
# Submitted via: dBpowerAMP V4.0
#
DISCID=a40bbb0d
DTITLE=Variuos - Country - Love songs
DYEAR=2004
DGENRE=Country
TTITLE0=Stand by your Man
TTITLE1=Still the One
TTITLE2=Could I have this Dance
TTITLE3=Lady
TTITLE4=I will always love you
TTITLE5=Crazy
TTITLE6=I'm sorry
TTITLE7=If tommorrow Never comes
TTITLE8=She believes in me
TTITLE9=You've got a way
TTITLE10=Crying
TTITLE11=(You were) always on my mind
TTITLE12=I fall to pieces
EXTD=Country - Love Songs
EXTT0=
EXTT1=
EXTT2=
EXTT3=
EXTT4=
EXTT5=
EXTT6=
EXTT7=
EXTT8=
EXTT9=
EXTT10=
EXTT11=
EXTT12=
PLAYORDER=
